# xmcd
#
# Track frame offsets:
#   150
#   13037
#   28584
#   42712
#   57925
#   71009
#   87012
#   98259
#   113142
#   126847
#   141207
#   155615
#
# Disc length: 2301 seconds
#
# Revision: 0
# Processed by: cddbd v1.5.1PL2 Copyright (c) Steve Scherf et al.
# Submitted via: uFREEDB ActiveX Control 1.5
#
DISCID=9c08fb0c
DTITLE=Marcos Paulo and Rafael - Solidão Nunca Mais
DYEAR=2005
DGENRE=Sertanejo
TTITLE0=Solidão Nunca Mais
TTITLE1=Arrepia
TTITLE2=Feitiço
TTITLE3=Coração Desesperado
TTITLE4=A Saudade Judia
TTITLE5=Não Dá Pra Te Esquecer
TTITLE6=Mais Xonado Do Brasil
TTITLE7=Galera Do Frevo
TTITLE8=Saudade Da Morena
TTITLE9=Coração Querendo Festa
TTITLE10=Boi Penacho
TTITLE11=Vem Me Namorar (Bônus Track)
EXTD=
EXTT0=
EXTT1=
EXTT2=
EXTT3=
EXTT4=
EXTT5=
EXTT6=
EXTT7=
EXTT8=
EXTT9=
EXTT10=
EXTT11=
PLAYORDER=
